<?xml version="1.0" standalone="no"?>
<!DOCTYPE svg PUBLIC "-//W3C//DTD SVG 20010904//EN"
 "http://www.w3.org/TR/2001/REC-SVG-20010904/DTD/svg10.dtd">
<svg version="1.0" xmlns="http://www.w3.org/2000/svg"
 width="200.000000pt" height="200.000000pt" viewBox="0 0 200.000000 200.000000"
 preserveAspectRatio="xMidYMid meet">

<g transform="translate(0.000000,200.000000) scale(0.100000,-0.100000)"
fill="#000000" stroke="none">
<path d="M1640 1764 c-8 -3 -201 -94 -428 -201 -342 -163 -416 -201 -427 -224
-14 -27 -14 -28 16 -34 20 -5 36 -2 47 8 21 18 511 252 516 246 5 -6 66 -128
66 -133 0 -2 -18 1 -40 6 -62 16 -87 5 -100 -43 -6 -22 -10 -55 -8 -72 3 -34
12 -37 73 -24 17 3 -9 -13 -57 -36 -48 -23 -88 -45 -88 -48 0 -3 24 -11 54
-18 49 -11 58 -10 95 8 22 12 44 21 49 21 5 0 12 -29 15 -65 9 -94 14 -100 60
-70 33 23 35 28 27 51 -12 30 -13 114 -2 114 4 -1 33 -55 64 -121 l57 -120
-103 -48 c-95 -44 -103 -51 -110 -81 -3 -18 -4 -35 -2 -38 3 -2 121 51 263
118 280 132 323 162 323 222 0 33 -216 504 -249 542 -15 18 -72 47 -88 45 -4
0 -15 -3 -23 -5z m96 -149 c66 -126 66 -119 -16 -160 -77 -39 -101 -41 -51 -5
39 27 31 46 -38 84 -60 32 -80 26 -108 -34 -10 -22 -20 -39 -23 -39 -3 0 -19
31 -36 68 l-32 69 107 50 c58 28 117 50 131 49 20 -2 32 -16 66 -82z m145
-302 c29 -62 49 -118 47 -133 -3 -21 -20 -33 -108 -77 -58 -29 -110 -53 -115
-53 -6 0 -30 39 -54 88 -60 119 -73 152 -62 152 13 0 87 -71 92 -89 4 -11 12
-11 47 0 23 6 42 16 42 21 0 5 -23 34 -52 64 -28 30 -49 57 -46 60 8 7 141 72
151 73 4 1 30 -47 58 -106z"/>
<path d="M246 1340 c-37 -11 -85 -56 -101 -95 -7 -16 -43 -167 -80 -335 -52
-231 -66 -314 -61 -342 8 -43 46 -92 88 -114 16 -8 239 -62 495 -119 514 -115
514 -115 576 -57 40 37 52 64 72 159 14 65 23 86 42 99 29 18 45 55 63 140 11
54 10 66 -5 97 -16 34 -16 40 0 112 28 125 6 203 -66 241 -31 16 -944 225
-976 223 -10 0 -31 -5 -47 -9z m525 -160 c244 -55 455 -105 468 -112 13 -7 30
-28 38 -47 12 -29 12 -43 -3 -112 -13 -59 -21 -79 -33 -79 -9 0 -65 11 -125
25 -97 21 -112 23 -142 10 -40 -16 -47 -30 -68 -125 -28 -127 -12 -145 163
-184 63 -15 116 -27 117 -29 1 -1 -6 -40 -17 -87 -15 -68 -25 -91 -49 -113
-17 -15 -40 -27 -53 -27 -12 0 -229 45 -482 102 -417 93 -463 105 -487 129
-21 21 -28 37 -28 67 0 43 124 601 140 632 16 29 51 50 85 50 18 0 231 -45
476 -100z m377 -399 c67 -15 125 -31 129 -34 12 -12 -18 -148 -34 -154 -8 -3
-74 7 -146 23 l-132 30 1 39 c2 64 22 125 42 125 9 0 72 -13 140 -29z"/>
<path d="M1012 748 c-15 -15 -15 -51 0 -66 34 -34 97 1 81 45 -12 33 -57 45
-81 21z"/>
</g>
</svg>
